<svg xmlns="http://www.w3.org/2000/svg" viewBox="0 0 128 128" width="128" height="128">
  <defs>
    <radialGradient id="h" cx="0.45" cy="0.55" r="0.7">
      <stop offset="0" stop-color="#E6F3FF"/>
      <stop offset="0.4" stop-color="#9CC6EE"/>
      <stop offset="1" stop-color="#4F78A8"/>
    </radialGradient>
  </defs>
  <circle cx="64" cy="68" r="52" fill="#BFDDFA" opacity="0.18"/>
  <ellipse cx="64" cy="118" rx="28" ry="5" fill="#7A6A55" opacity="0.18"/>
  <path d="M64 6 C62 12, 66 16, 64 22" fill="none" stroke="#6E8A8A" stroke-width="3" stroke-linecap="round"/>
  <path d="M64 20 C40 24, 26 52, 34 80 C40 100, 56 112, 64 114 C72 112, 88 100, 94 80 C102 52, 88 24, 64 20 Z"
        fill="url(#h)" stroke="#3E6290" stroke-width="2" stroke-linejoin="round" opacity="0.92"/>
  <g fill="none" stroke="#5A82B4" stroke-width="2" stroke-linecap="round" opacity="0.6">
    <path d="M64 22 C52 46, 52 86, 64 112"/>
    <path d="M64 22 C78 46, 78 86, 64 112"/>
  </g>
  <!-- なかの実が、ぼんやり光っている -->
  <circle cx="64" cy="74" r="13" fill="#FFFFFF" opacity="0.7"/>
  <circle cx="64" cy="74" r="22" fill="#E8F4FF" opacity="0.35"/>
</svg>
