<svg xmlns="http://www.w3.org/2000/svg" viewBox="0 0 128 128" width="128" height="128">
  <ellipse cx="64" cy="116" rx="40" ry="6" fill="#7A6A55" opacity="0.18"/>
  <!-- なつみの絵：線香花火に てらされた ぼくの よこがお。そらは あの あおい いろ -->
  <rect x="14" y="20" width="100" height="84" rx="2" fill="#FBF6E8" stroke="#B9AB8C" stroke-width="2"/>
  <rect x="20" y="26" width="88" height="56" fill="#3F78B5"/>
  <g fill="#F4EBC9"><circle cx="30" cy="34" r="1.5"/><circle cx="52" cy="30" r="1.2"/><circle cx="96" cy="36" r="1.5"/><circle cx="82" cy="30" r="1.2"/></g>
  <rect x="20" y="70" width="88" height="28" fill="#4E6B48"/>
  <!-- よこがお -->
  <path d="M46 98 C44 86, 44 78, 48 70 C50 62, 56 56, 64 56 C72 56, 76 62, 76 68 L80 72 L76 74 C76 80, 74 84, 70 86 L70 98 Z" fill="#F0C39A"/>
  <path d="M48 70 C46 58, 56 50, 66 52 C74 52, 78 58, 76 64 C70 60, 60 62, 52 72 Z" fill="#3B302A"/>
  <!-- 線香花火の あかり -->
  <circle cx="88" cy="88" r="12" fill="#FFD27A" opacity="0.45"/>
  <circle cx="88" cy="88" r="4" fill="#F2783A"/>
  <path d="M88 70 V84" stroke="#C25B8E" stroke-width="2"/>
  <g stroke="#F2A13A" stroke-width="1.5"><path d="M88 88 L98 84 M88 88 L96 96 M88 88 L80 96"/></g>
</svg>
