<svg xmlns="http://www.w3.org/2000/svg" viewBox="0 0 128 128" width="128" height="128">
  <defs>
    <radialGradient id="b" cx="0.38" cy="0.35" r="0.75">
      <stop offset="0" stop-color="#D9C48A"/>
      <stop offset="0.55" stop-color="#A88A4E"/>
      <stop offset="1" stop-color="#6E5530"/>
    </radialGradient>
  </defs>
  <ellipse cx="64" cy="116" rx="30" ry="5" fill="#7A6A55" opacity="0.18"/>
  <!-- ひも（色あせた赤） -->
  <path d="M64 8 C56 14, 72 20, 64 28" fill="none" stroke="#A8574A" stroke-width="4" stroke-linecap="round"/>
  <path d="M60 30 C54 26, 52 20, 58 18" fill="none" stroke="#A8574A" stroke-width="3" stroke-linecap="round"/>
  <path d="M68 30 C74 26, 76 20, 70 18" fill="none" stroke="#A8574A" stroke-width="3" stroke-linecap="round"/>
  <!-- つり手 -->
  <circle cx="64" cy="34" r="6" fill="none" stroke="#7A6038" stroke-width="4"/>
  <!-- 鈴の玉 -->
  <circle cx="64" cy="74" r="36" fill="url(#b)" stroke="#5E4828" stroke-width="2.5"/>
  <!-- まんなかの帯と口 -->
  <path d="M29 72 C44 80, 84 80, 99 72" fill="none" stroke="#5E4828" stroke-width="3" stroke-linecap="round"/>
  <path d="M64 80 L64 104" stroke="#3E2F1C" stroke-width="5" stroke-linecap="round"/>
  <circle cx="64" cy="82" r="6" fill="#3E2F1C"/>
  <!-- さび -->
  <g fill="#8C5A34" opacity="0.55">
    <circle cx="44" cy="92" r="5"/><circle cx="52" cy="98" r="3"/><circle cx="86" cy="60" r="4"/>
    <circle cx="80" cy="96" r="6"/><circle cx="90" cy="88" r="3"/><circle cx="40" cy="62" r="3"/>
  </g>
  <path d="M46 52 C50 46, 56 44, 60 44" fill="none" stroke="#F2E6C2" stroke-width="4" stroke-linecap="round" opacity="0.6"/>
</svg>
