<svg xmlns="http://www.w3.org/2000/svg" viewBox="0 0 200 400" width="200" height="400">
  <ellipse cx="100" cy="392" rx="46" ry="6" fill="#000" opacity="0.0"/>
  <!-- 足（ぞうり） -->
  <path d="M78 300 L76 378" stroke="#E2B894" stroke-width="16" stroke-linecap="round"/>
  <path d="M112 300 L116 378" stroke="#E2B894" stroke-width="16" stroke-linecap="round"/>
  <rect x="62" y="380" width="34" height="9" rx="4" fill="#8A6A4A"/>
  <rect x="104" y="380" width="36" height="9" rx="4" fill="#8A6A4A"/>
  <path d="M74 380 L80 372 M118 380 L122 372" stroke="#B5563A" stroke-width="3"/>
  <!-- 甚平の半ズボン（色あせた藍、ひざ丈） -->
  <path d="M62 232 L138 232 L142 300 L102 300 L99 272 L96 300 L58 300 Z" fill="#4A5C80" stroke="#36445E" stroke-width="2" stroke-linejoin="round"/>
  <!-- 甚平の上着（色あせた藍、白い細かいかすり。前を脇のひもで結ぶ） -->
  <path d="M64 150 C70 142, 84 140, 92 146 L100 156 L108 146 C116 140, 130 142, 136 150 L140 246 L60 246 Z"
        fill="#4A5C80" stroke="#36445E" stroke-width="2.5" stroke-linejoin="round"/>
  <!-- 半そで（ゆったりした袖） -->
  <path d="M66 152 L46 190 L66 200 L74 176 Z" fill="#4A5C80" stroke="#36445E" stroke-width="2" stroke-linejoin="round"/>
  <path d="M134 152 L154 190 L134 200 L126 176 Z" fill="#4A5C80" stroke="#36445E" stroke-width="2" stroke-linejoin="round"/>
  <!-- えり（打ち合わせ）と、脇のひも -->
  <path d="M92 146 L100 156 L124 226" fill="none" stroke="#D9D2BE" stroke-width="5" stroke-linecap="round"/>
  <path d="M108 146 L100 156" fill="none" stroke="#D9D2BE" stroke-width="5" stroke-linecap="round"/>
  <path d="M124 222 L136 218 M124 226 L134 232" stroke="#D9D2BE" stroke-width="3" stroke-linecap="round"/>
  <g fill="#E8E2D2" opacity="0.7">
    <rect x="72" y="170" width="4" height="2"/><rect x="86" y="196" width="4" height="2"/><rect x="76" y="222" width="4" height="2"/>
    <rect x="112" y="178" width="4" height="2"/><rect x="128" y="200" width="4" height="2"/><rect x="104" y="236" width="4" height="2"/>
    <rect x="70" y="262" width="4" height="2"/><rect x="118" y="270" width="4" height="2"/><rect x="84" y="286" width="4" height="2"/>
    <rect x="128" y="288" width="4" height="2"/><rect x="56" y="180" width="4" height="2"/><rect x="144" y="182" width="4" height="2"/>
  </g>
  <!-- 腕（袖から出た手） -->
  <path d="M54 194 C54 212, 56 226, 60 238" fill="none" stroke="#E2B894" stroke-width="14" stroke-linecap="round"/>
  <path d="M146 194 C146 212, 144 224, 140 236" fill="none" stroke="#E2B894" stroke-width="14" stroke-linecap="round"/>
  <!-- 首 -->
  <rect x="91" y="128" width="18" height="22" fill="#E2B894"/>

  <!-- 頭（短い髪の、ふつうの男の子） -->
  <circle cx="100" cy="88" r="50" fill="#E2B894"/>
  <path d="M50 86 C48 50, 74 34, 102 34 C130 34, 152 52, 150 84 C140 70, 124 64, 104 66 C84 66, 64 72, 50 86 Z" fill="#2A2320"/>
  <path d="M74 98 C78 94, 84 94, 88 98 M112 98 C116 94, 122 94, 126 98" fill="none" stroke="#2E2620" stroke-width="3.5" stroke-linecap="round"/>
  <path d="M92 118 C98 122, 104 122, 110 118" fill="none" stroke="#8C5A44" stroke-width="3" stroke-linecap="round"/>
  <circle cx="72" cy="110" r="7" fill="#E89A84" opacity="0.4"/>
  <circle cx="130" cy="110" r="7" fill="#E89A84" opacity="0.4"/>
</svg>
