<svg xmlns="http://www.w3.org/2000/svg" viewBox="0 0 200 400" width="200" height="400">
  <ellipse cx="100" cy="392" rx="46" ry="6" fill="#000" opacity="0.0"/>
  <!-- 足（ぞうり） -->
  <path d="M78 300 L76 378" stroke="#E2B894" stroke-width="16" stroke-linecap="round"/>
  <path d="M112 300 L116 378" stroke="#E2B894" stroke-width="16" stroke-linecap="round"/>
  <rect x="62" y="380" width="34" height="9" rx="4" fill="#8A6A4A"/>
  <rect x="104" y="380" width="36" height="9" rx="4" fill="#8A6A4A"/>
  <path d="M74 380 L80 372 M118 380 L122 372" stroke="#B5563A" stroke-width="3"/>
  <!-- 半ズボン（色あせた紺） -->
  <path d="M62 236 L138 236 L140 304 L102 304 L98 278 L94 304 L58 304 Z" fill="#4A5A72" stroke="#3A4558" stroke-width="2" stroke-linejoin="round"/>
  <!-- 古いランニングシャツ（生成り、すこし黄ばんでいる） -->
  <path d="M66 150 C70 142, 80 140, 84 146 C90 156, 110 156, 116 146 C120 140, 130 142, 134 150 L138 244 L62 244 Z"
        fill="#EFE8D2" stroke="#BDB296" stroke-width="2.5" stroke-linejoin="round"/>
  <path d="M70 200 C90 204, 110 204, 130 198" fill="none" stroke="#D8CDB0" stroke-width="2"/>
  <!-- 腕 -->
  <path d="M66 156 C56 186, 56 210, 60 236" fill="none" stroke="#E2B894" stroke-width="15" stroke-linecap="round"/>
  <path d="M134 156 C146 184, 146 208, 140 232" fill="none" stroke="#E2B894" stroke-width="15" stroke-linecap="round"/>
  <!-- 首 -->
  <rect x="91" y="128" width="18" height="22" fill="#E2B894"/>

  <!-- 頭とうしろの髪 -->
  <circle cx="100" cy="88" r="50" fill="#E2B894"/>
  <path d="M50 86 C48 50, 74 34, 102 34 C130 34, 152 52, 150 84 C140 70, 124 64, 104 66 C84 66, 64 72, 50 86 Z" fill="#2A2320"/>
  <!-- きつねのお面（少し右を向いて、顔をおおう） -->
  <path d="M60 56 L70 22 L88 52 L116 52 L134 22 L144 56 C150 92, 132 126, 106 138 C80 126, 58 96, 60 56 Z"
        fill="#F7F1E4" stroke="#8C7A60" stroke-width="2.5" stroke-linejoin="round"/>
  <path d="M68 30 L72 50 L82 52 Z M132 30 L128 50 L120 52 Z" fill="#D9705A"/>
  <path d="M70 84 C78 74, 90 76, 94 86" fill="none" stroke="#C8462E" stroke-width="5" stroke-linecap="round"/>
  <path d="M138 84 C130 74, 118 76, 114 86" fill="none" stroke="#C8462E" stroke-width="5" stroke-linecap="round"/>
  <path d="M76 88 C82 84, 88 86, 92 89 M132 88 C126 84, 120 86, 116 89" fill="none" stroke="#2E2620" stroke-width="3" stroke-linecap="round"/>
  <circle cx="104" cy="66" r="5" fill="#C8462E"/>
  <circle cx="106" cy="116" r="4.5" fill="#2E2620"/>
  <path d="M98 122 L106 128 L114 122" fill="none" stroke="#2E2620" stroke-width="3" stroke-linecap="round"/>
  <!-- ひも -->
  <path d="M60 80 C54 84, 52 90, 54 96" fill="none" stroke="#B5563A" stroke-width="3"/>
</svg>
